<svg xmlns="http://www.w3.org/2000/svg" fill="none" viewBox="0 0 24 24">
  <g fill="#000">
    <path d="M17.5 18.5H20L13.5 4L17.5 18.5Z"/>
    <path d="M6.5 18.5H4L10.5 4L6.5 18.5Z"/>
    <path d="M12 11.2998C13.5 11.2998 15 11.418 16.5 11.6543C16.6667 11.6805 16.8333 11.7081 17 11.7373V12.2627C16.8333 12.2919 16.6667 12.3195 16.5 12.3457C15.2647 12.5403 14.0293 12.6531 12.7939 12.6875L12 12L11.2051 12.6875C9.97007 12.6531 8.73501 12.5402 7.5 12.3457C7.33334 12.3195 7.16666 12.2919 7 12.2627V11.7373C7.16666 11.7081 7.33334 11.6805 7.5 11.6543C9 11.418 10.5 11.2998 12 11.2998Z"/>
    <path d="M13 9.5C13.1216 9.38986 13.2439 9.29785 13.3661 9.2155C13.8371 8.90527 14.2923 8.71681 14.7552 8.45358C15.3428 8.12608 16.0035 7.86881 16.6748 7.60171C17.8927 7.09797 19.4556 6.43042 19.928 4.9568C19.9701 4.80513 19.9934 4.65349 20 4.5C19.9305 4.63707 19.8509 4.76021 19.7618 4.87479C18.8969 5.90235 17.5606 6.14181 16.3059 6.67226C15.6353 6.94003 14.9443 7.20462 14.2668 7.58094C13.7391 7.87373 13.2377 8.37132 13.061 9.00722C13.0159 9.16985 12.9952 9.33608 13 9.5Z"/>
    <path d="M10.9973 9.5C10.8757 9.38986 10.7533 9.29785 10.6312 9.2155C10.1601 8.90527 9.70495 8.71681 9.24209 8.45358C8.65451 8.12608 7.99375 7.86881 7.32245 7.60171C6.10456 7.09797 4.54162 6.43042 4.06922 4.9568C4.02714 4.80513 4.0039 4.65349 3.99726 4.5C4.06677 4.63707 4.14634 4.76021 4.23549 4.87479C5.10036 5.90235 6.43663 6.14181 7.69139 6.67226C8.362 6.94003 9.05301 7.20462 9.73045 7.58094C10.2581 7.87373 10.7595 8.37132 10.9362 9.00722C10.9813 9.16985 11.0021 9.33608 10.9973 9.5Z"/>
  </g>
  <style>
    g { fill: #000; }
    @media (prefers-color-scheme: dark) {
      g { fill: #FFF; }
    }
  </style>
</svg>
